Coordinates
version=1
nRows=14
nColumns=24
inDegrees=yes

Units are S.I. units (second, meters, Newtons, ...)
Angles are in degrees.

endheader
time	pelvis_tilt	pelvis_list	pelvis_rotation	pelvis_tx	pelvis_ty	pelvis_tz	hip_flexion_r	hip_adduction_r	hip_rotation_r	knee_angle_r	ankle_angle_r	subtalar_angle_r	mtp_angle_r	hip_flexion_l	hip_adduction_l	hip_rotation_l	knee_angle_l	ankle_angle_l	subtalar_angle_l	mtp_angle_l	lumbar_extension	lumbar_bending	lumbar_rotation
      0.68716667	     -5.12294050	     -0.26568361	      1.35800472	     -0.44829440	      1.04439434	      0.31725029	     21.37248188	      2.43174701	     -1.41911475	    -30.07919130	     16.33351361	     -4.47813479	      1.33841290	     17.79348463	     -5.38786798	     -5.73495989	    -72.85248905	     10.50929206	      5.84648008	      3.64516394	     -5.26730667	      3.60599041	      0.81205733
      0.69133333	     -5.15976275	     -0.12286619	      1.36915994	     -0.44306832	      1.04592869	      0.31725126	     20.84000603	      2.28275406	     -1.39211390	    -29.56587949	     16.35104791	     -4.41746047	      1.33875396	     18.43390950	     -5.19290329	     -5.75755840	    -72.78854349	     10.73194424	      6.02459739	      3.63595316	     -5.23962917	      3.44416791	      0.86978619
      0.69550000	     -5.20029328	      0.02630844	      1.36862249	     -0.43785206	      1.04742357	      0.31724805	     20.31275555	      2.12863798	     -1.35668402	    -29.04982169	     16.36281390	     -4.35796328	      1.33943555	     19.06746587	     -4.99096909	     -5.79428792	    -72.66451246	     10.94881948	      6.22400225	      3.62949860	     -5.20889030	      3.27503520	      0.93375155
      0.69966667	     -5.23507828	      0.17222070	      1.35766448	     -0.43266760	      1.04890002	      0.31725418	     19.78105373	      1.98361402	     -1.30087085	    -28.52944892	     16.35571074	     -4.30790549	      1.34091466	     19.68708558	     -4.79581873	     -5.83827770	    -72.48659224	     11.17860655	      6.49002260	      3.62002041	     -5.21333484	      3.11233556	      1.03818176
      0.70383333	     -5.26812459	      0.32618688	      1.33892934	     -0.42746010	      1.05036136	      0.31725109	     19.24336227	      1.82853577	     -1.24904251	    -27.99833301	     16.34869408	     -4.25959132	      1.34289692	     20.28708640	     -4.59218617	     -5.89753331	    -72.23902551	     11.37341518	      6.69415800	      3.61448874	     -5.19500130	      2.93700763	      1.12703315
      0.70800000	     -5.29107684	      0.46680530	      1.31651937	     -0.42225731	      1.05180585	      0.31723116	     18.69107501	      1.68721224	     -1.19727154	    -27.45493505	     16.32701703	     -4.21771296	      1.34529584	     20.86761427	     -4.40531327	     -5.96003692	    -71.93982089	     11.56885775	      6.91582764	      3.61328898	     -5.19100064	      2.77648912	      1.22091152
      0.71216667	     -5.30519332	      0.62446602	      1.28194029	     -0.41706089	      1.05323866	      0.31722287	     18.13281809	      1.52994733	     -1.13610822	    -26.91327546	     16.30616378	     -4.17303904	      1.34839547	     21.42083655	     -4.20312320	     -6.03737233	    -71.57470367	     11.74711809	      7.11398015	      3.61565498	     -5.19910111	      2.59715413	      1.31376195
      0.71633333	     -5.32231944	      0.77860701	      1.24379457	     -0.41186825	      1.05462122	      0.31720278	     17.57875406	      1.37506237	     -1.07428614	    -26.37021042	     16.28009195	     -4.13010633	      1.35192327	     21.96775482	     -4.00726790	     -6.12100331	    -71.16105508	     11.91876911	      7.30488867	      3.62136106	     -5.20250663	      2.42185695	      1.41311311
      0.72050000	     -5.34699714	      0.93181178	      1.19736590	     -0.40668859	      1.05593138	      0.31718885	     17.03895906	      1.22215993	     -1.00699050	    -25.83398254	     16.25371616	     -4.08869461	      1.35637816	     22.51140209	     -3.81632379	     -6.21186340	    -70.69742622	     12.08307923	      7.48020857	      3.63004533	     -5.20198851	      2.24650508	      1.51877804
      0.72466667	     -5.34473966	      1.08052680	      1.14616639	     -0.40150811	      1.05725788	      0.31716642	     16.46698803	      1.07351918	     -0.93899617	    -25.28721671	     16.21645740	     -4.05357538	      1.36170323	     23.01210613	     -3.63476456	     -6.30860948	    -70.18045294	     12.23822124	      7.64233544	      3.64177563	     -5.23145354	      2.07418208	      1.63598798
      0.72883333	     -5.35827655	      1.24309067	      1.08871675	     -0.39633409	      1.05849997	      0.31714162	     15.92186811	      0.90844785	     -0.87266298	    -24.75780965	     16.19076047	     -4.00776114	      1.36713325	     23.51600317	     -3.43890097	     -6.41261404	    -69.61101359	     12.37476317	      7.76713420	      3.65425417	     -5.24157904	      1.88787997	      1.74018207
      0.73300000	     -5.33771699	      1.38692094	      1.02290240	     -0.39116866	      1.05975546	      0.31713228	     15.33430356	      0.76828511	     -0.78920578	    -24.20966586	     16.17231668	     -3.98969411	      1.37944447	     23.97134219	     -3.27412745	     -6.52451451	    -68.99738472	     12.50722391	      7.88189848	      3.67783190	     -5.29634910	      1.71519995	      1.92398363
      0.73716667	     -5.36963922	      1.53866281	      0.96464499	     -0.38599446	      1.06084195	      0.31708815	     14.81743010	      0.60786669	     -0.74790778	    -23.69123345	     16.13051785	     -3.92557200	      1.38379421	     24.47590680	     -3.09440811	     -6.62633002	    -68.34605712	     12.62843555	      7.95889658	      3.68940820	     -5.27540470	      1.53927011	      1.98872794
      0.74133333	     -5.36293744	      1.70544258	      0.88722621	     -0.38086242	      1.06195644	      0.31705874	     14.26763893	      0.43793508	     -0.66215504	    -23.18306141	     16.10634067	     -3.89079868	      1.39271296	     24.91788221	     -2.90194093	     -6.73869697	    -67.63111556	     12.73010341	      8.02620889	      3.70793283	     -5.32948874	      1.35178004	      2.12927870
